# xmcd
#
# Track frame offsets:
#	150
#	9769
#	19064
#	35654
#	45504
#	60092
#	73659
#	89447
#	105957
#	125006
#	147255
#	164557
#	178539
#	195949
#
# Disc length: 2863 seconds
#
# Revision: 0
# Processed by: cddbd v1.5.2PL0 Copyright (c) Steve Scherf et al.
# Submitted via: EZCDAudioConverter 2.1.7.1
#
DISCID=ac0b2d0e
DTITLE=Crowded House - Afterglow 2/2
DYEAR=1900
DGENRE=
TTITLE0=I Am In Love [Home Demo]
TTITLE1=Instinct [Home Demo]
TTITLE2=Spirit Of The Stairs [Home Demo]
TTITLE3=I'm So Scared Of Losing I Can't Compete [Home Demo]
TTITLE4=Everything Is Good For You [Home Demo]
TTITLE5=Not The Girl You Think You Are [Home Demo]
TTITLE6=Anthem
TTITLE7=I Don't Know You [Studio Demo]
TTITLE8=Taste Of Something Divine [Studio Demo]
TTITLE9=Spirit Of The Stairs [Studio Demo]
TTITLE10=Loose Tongue [Rough Mix]
TTITLE11=Instinct
TTITLE12=Everything Is Good For You
TTITLE13=Not The Girl You Think You Are
EXTD=
EXTT0=
EXTT1=
EXTT2=
EXTT3=
EXTT4=
EXTT5=
EXTT6=
EXTT7=
EXTT8=
EXTT9=
EXTT10=
EXTT11=
EXTT12=
EXTT13=
PLAYORDER=
